<svg width="22" height="22" viewBox="0 0 22 22" fill="none" xmlns="http://www.w3.org/2000/svg">
<path d="M13.6913 21.3863C13.6946 21.3552 13.6964 21.3238 13.6967 21.292V13.7296H16.4047C16.8388 13.7296 17.2294 13.4566 17.293 13.0463C17.3781 12.4712 17.3757 11.8873 17.2856 11.3129C17.2231 10.9101 16.8476 10.6455 16.4213 10.6455H13.6967C13.6967 8.31463 14.103 7.97579 16.3929 7.93285C16.8324 7.92492 17.2265 7.64815 17.2905 7.23276C17.3981 6.535 17.3551 5.92545 17.2876 5.49652C17.2255 5.10027 16.8535 4.84217 16.434 4.84544C12.3865 4.87904 10.0814 5.33597 10.0814 10.645H7.98453C7.57729 10.645 7.21551 10.8891 7.15342 11.2732C7.08742 11.6877 7.04733 12.2884 7.15831 13.0188C7.22187 13.4407 7.61982 13.7296 8.06618 13.7296H10.0814V21.4092C6.9476 21.3896 4.70458 21.2715 3.24427 21.1581C1.6368 21.0335 0.396489 19.8494 0.265956 18.3148C0.135911 16.7881 0 14.3648 0 10.9106C0 7.45632 0.135911 5.03306 0.265956 3.50639C0.396 1.97179 1.6368 0.78723 3.24427 0.66308C4.84342 0.53893 7.38173 0.40918 11 0.40918C14.6183 0.40918 17.1566 0.53893 18.7557 0.66308C20.3632 0.787697 21.6035 1.97179 21.734 3.50639C21.8641 5.03306 22 7.45632 22 10.9106C22 14.3648 21.8641 16.7881 21.734 18.3148C21.6035 19.8494 20.3632 21.0335 18.7557 21.1581C17.5873 21.2486 15.9177 21.342 13.6913 21.3863Z" fill="#F5E8D8"/>
</svg>
