<svg width="21" height="22" viewBox="0 0 21 22" fill="none" xmlns="http://www.w3.org/2000/svg">
<path fill-rule="evenodd" clip-rule="evenodd" d="M4.50037 0.40918C3.3071 0.40918 2.16267 0.883087 1.31874 1.7267C0.474805 2.57031 0.000458246 3.71455 0 4.90782V16.9088C0 18.1024 0.474145 19.2471 1.31813 20.0911C2.16211 20.935 3.3068 21.4092 4.50037 21.4092H16.5014C17.6946 21.4087 18.8389 20.9344 19.6825 20.0904C20.5261 19.2465 21 18.1021 21 16.9088V4.90782C20.9995 3.71485 20.5254 2.57087 19.6819 1.72731C18.8383 0.883747 17.6943 0.409638 16.5014 0.40918H4.50037ZM17.7958 4.91473C17.7958 5.25851 17.6593 5.5882 17.4162 5.83128C17.1731 6.07436 16.8434 6.21092 16.4996 6.21092C16.1559 6.21092 15.8262 6.07436 15.5831 5.83128C15.34 5.5882 15.2034 5.25851 15.2034 4.91473C15.2034 4.57096 15.34 4.24127 15.5831 3.99819C15.8262 3.75511 16.1559 3.61855 16.4996 3.61855C16.8434 3.61855 17.1731 3.75511 17.4162 3.99819C17.6593 4.24127 17.7958 4.57096 17.7958 4.91473ZM10.5026 7.31355C9.5492 7.31355 8.63486 7.69228 7.96071 8.36643C7.28656 9.04058 6.90783 9.95492 6.90783 10.9083C6.90783 11.8617 7.28656 12.776 7.96071 13.4502C8.63486 14.1243 9.5492 14.5031 10.5026 14.5031C11.456 14.5031 12.3703 14.1243 13.0445 13.4502C13.7186 12.776 14.0974 11.8617 14.0974 10.9083C14.0974 9.95492 13.7186 9.04058 13.0445 8.36643C12.3703 7.69228 11.456 7.31355 10.5026 7.31355ZM5.17785 10.9083C5.17785 9.49656 5.73866 8.14263 6.73692 7.14437C7.73518 6.14611 9.08911 5.5853 10.5009 5.5853C11.9126 5.5853 13.2665 6.14611 14.2648 7.14437C15.2631 8.14263 15.8239 9.49656 15.8239 10.9083C15.8239 12.3201 15.2631 13.674 14.2648 14.6723C13.2665 15.6705 11.9126 16.2313 10.5009 16.2313C9.08911 16.2313 7.73518 15.6705 6.73692 14.6723C5.73866 13.674 5.17785 12.3201 5.17785 10.9083Z" fill="#F5E8D8"/>
</svg>
