<svg width="11" height="17" viewBox="0 0 11 17" fill="none" xmlns="http://www.w3.org/2000/svg">
<path d="M1.85573 1.33445L2.70193 1.05925C3.49392 0.801644 4.3409 1.21845 4.68033 2.03286L5.35603 3.65528C5.65067 4.36169 5.48724 5.1929 4.95218 5.7097L3.46485 7.14812C3.55651 8.00893 3.84041 8.85614 4.31655 9.68975C4.76932 10.496 5.37602 11.2019 6.10087 11.7658L7.88913 11.1578C8.5664 10.9282 9.30418 11.193 9.71981 11.8146L10.6878 13.2626C11.1718 13.9858 11.0846 14.9826 10.4851 15.5954L9.84238 16.2522C9.20282 16.9058 8.28984 17.1434 7.44442 16.8746C5.44979 16.241 3.6157 14.3602 1.94216 11.2322C0.266524 8.0988 -0.324847 5.44063 0.168049 3.25767C0.375474 2.33926 1.01818 1.60725 1.85731 1.33445" fill="#F5E8D8"/>
</svg>
