<svg width="11" height="17" viewBox="0 0 11 17" fill="none" xmlns="http://www.w3.org/2000/svg">
<path d="M5.5 8.5834C4.97904 8.5834 4.47942 8.37268 4.11104 7.99761C3.74267 7.62254 3.53571 7.11383 3.53571 6.5834C3.53571 6.05297 3.74267 5.54426 4.11104 5.16919C4.47942 4.79411 4.97904 4.5834 5.5 4.5834C6.02096 4.5834 6.52058 4.79411 6.88896 5.16919C7.25733 5.54426 7.46429 6.05297 7.46429 6.5834C7.46429 6.84604 7.41348 7.10611 7.31476 7.34877C7.21605 7.59142 7.07136 7.81189 6.88896 7.99761C6.70656 8.18333 6.49002 8.33065 6.2517 8.43116C6.01338 8.53167 5.75795 8.5834 5.5 8.5834ZM5.5 0.983398C4.04131 0.983398 2.64236 1.5734 1.61091 2.6236C0.579463 3.6738 0 5.09819 0 6.5834C0 10.7834 5.5 16.9834 5.5 16.9834C5.5 16.9834 11 10.7834 11 6.5834C11 5.09819 10.4205 3.6738 9.38909 2.6236C8.35764 1.5734 6.95869 0.983398 5.5 0.983398Z" fill="#F5E8D8"/>
</svg>
