<svg width="21" height="22" viewBox="0 0 21 22" fill="none" xmlns="http://www.w3.org/2000/svg">
<path d="M3 0.40918C1.34531 0.40918 0 1.75449 0 3.40918V18.4092C0 20.0639 1.34531 21.4092 3 21.4092H18C19.6547 21.4092 21 20.0639 21 18.4092V3.40918C21 1.75449 19.6547 0.40918 18 0.40918H3ZM16.9266 4.34668L12.0609 9.90606L17.7844 17.4717H13.3031L9.79688 12.8826L5.77969 17.4717H3.55313L8.75625 11.5232L3.26719 4.34668H7.86094L11.0344 8.54199L14.7 4.34668H16.9266ZM15.1547 16.1404L7.19062 5.60762H5.86406L13.9172 16.1404H15.1547Z" fill="#F5E8D8"/>
</svg>
